<?xml version="1.0" encoding="UTF-8" standalone="no"?><!DOCTYPE svg PUBLIC "-//W3C//DTD SVG 1.1//EN" "http://www.w3.org/Graphics/SVG/1.1/DTD/svg11.dtd"><svg width="100%" height="100%" viewBox="0 0 738 100" version="1.1" xmlns="http://www.w3.org/2000/svg" xmlns:xlink="http://www.w3.org/1999/xlink" xml:space="preserve" xmlns:serif="http://www.serif.com/" style="fill-rule:evenodd;clip-rule:evenodd;stroke-linejoin:round;stroke-miterlimit:2;"><path id="path2" d="M44.223,0.682c1.677,-0.907 3.742,-0.907 5.417,-0c8.287,4.483 33.225,17.978 41.515,22.461c1.677,0.905 2.71,2.581 2.71,4.396l-0,44.921c-0,1.814 -1.033,3.49 -2.71,4.397c-8.287,4.484 -33.226,17.979 -41.515,22.462c-1.678,0.907 -3.743,0.907 -5.417,0c-8.288,-4.483 -33.226,-17.978 -41.515,-22.462c-1.675,-0.907 -2.708,-2.581 -2.708,-4.395l0,-44.921c0,-1.814 1.033,-3.49 2.71,-4.398c8.285,-4.483 33.228,-17.978 41.513,-22.461Z" style="fill:#f5cb3a;"/><path id="path4" d="M0.751,74.772c-0.657,-0.848 -0.751,-1.653 -0.751,-2.736l0,-44.664c0,-1.805 1.03,-3.471 2.703,-4.371c8.257,-4.458 33.111,-17.874 41.369,-22.334c1.672,-0.902 3.937,-0.883 5.61,0.019c8.257,4.457 33.028,17.76 41.285,22.217c0.667,0.362 1.176,0.798 1.63,1.371l-91.846,50.498l0,-0Z" style="fill:#dfb95f;"/><path id="path8" d="M92.593,24.298c1.274,1.15 1.25,2.884 1.25,4.248c-0,9.035 -0.079,34.735 0.022,43.771c0.01,0.943 -0.314,1.936 -0.798,2.683l-47.14,-25l46.666,-25.702Z" style="fill:#f8de4d;"/><g transform="matrix(90.4814,0,0,90.4814,296.657,80.7295)"></g><text x="134.559px" y="80.729px" style="font-family:'Inter-Regular', 'Inter';font-size:90.481px;fill:#e5e4e0;">Eon</text></svg>