<?xml version="1.0" encoding="UTF-8" standalone="no"?><!DOCTYPE svg PUBLIC "-//W3C//DTD SVG 1.1//EN" "http://www.w3.org/Graphics/SVG/1.1/DTD/svg11.dtd"><svg width="100%" height="100%" viewBox="0 0 1584 1751" version="1.1" xmlns="http://www.w3.org/2000/svg" xmlns:xlink="http://www.w3.org/1999/xlink" xml:space="preserve" xmlns:serif="http://www.serif.com/" style="fill-rule:evenodd;clip-rule:evenodd;stroke-linejoin:round;stroke-miterlimit:2;"><path id="path2" d="M745.958,11.928c28.292,-15.875 63.125,-15.875 91.375,0c139.792,78.459 560.459,314.625 700.292,393.084c28.292,15.833 45.708,45.166 45.708,76.916l0,786.125c0,31.75 -17.416,61.084 -45.708,76.959c-139.792,78.458 -560.458,314.625 -700.292,393.083c-28.291,15.875 -63.125,15.875 -91.375,0c-139.791,-78.458 -560.458,-314.625 -700.291,-393.083c-28.25,-15.875 -45.667,-45.167 -45.667,-76.917l0,-786.125c0,-31.75 17.417,-61.083 45.708,-76.958c139.75,-78.459 560.5,-314.625 700.25,-393.084Z" style="fill:#f5cb3a;"/><path id="path4" d="M12.667,1308.51c-11.084,-14.834 -12.667,-28.917 -12.667,-47.875l0,-781.625c0,-31.584 17.375,-60.75 45.583,-76.5c139.292,-78 558.542,-312.792 697.834,-390.834c28.208,-15.791 66.416,-15.458 94.625,0.334c139.291,78 557.125,310.791 696.416,388.791c11.25,6.334 19.834,13.959 27.5,24l-1549.29,883.709Z" style="fill:#dfb95f;"/><path id="path8" d="M1561.88,425.22c21.5,20.125 21.083,50.458 21.083,74.333c0,158.125 -1.333,607.875 0.375,766c0.167,16.5 -5.291,33.875 -13.458,46.959l-795.167,-437.5l787.167,-449.792Z" style="fill:#f8de4d;"/></svg>