<?xml version="1.0" encoding="UTF-8" standalone="no"?><!DOCTYPE svg PUBLIC "-//W3C//DTD SVG 1.1//EN" "http://www.w3.org/Graphics/SVG/1.1/DTD/svg11.dtd"><svg width="100%" height="100%" viewBox="0 0 3075 417" version="1.1" xmlns="http://www.w3.org/2000/svg" xmlns:xlink="http://www.w3.org/1999/xlink" xml:space="preserve" xmlns:serif="http://www.serif.com/" style="fill-rule:evenodd;clip-rule:evenodd;stroke-linejoin:round;stroke-miterlimit:2;"><path id="path2" d="M184.263,2.842c6.987,-3.78 15.591,-3.78 22.57,-0c34.53,18.679 138.438,74.908 172.98,93.587c6.987,3.771 11.291,10.754 11.291,18.317l0,187.171c0,7.558 -4.304,14.541 -11.291,18.32c-34.53,18.684 -138.442,74.913 -172.98,93.592c-6.991,3.779 -15.595,3.779 -22.57,0c-34.534,-18.679 -138.442,-74.908 -172.98,-93.592c-6.979,-3.779 -11.283,-10.754 -11.283,-18.312l-0,-187.171c-0,-7.558 4.304,-14.541 11.292,-18.325c34.52,-18.679 138.45,-74.908 172.971,-93.587Z" style="fill:#f5cb3a;"/><path id="path4" d="M3.129,311.55c-2.737,-3.533 -3.129,-6.887 -3.129,-11.4l0,-186.1c0,-7.521 4.292,-14.463 11.262,-18.213c34.405,-18.575 137.963,-74.475 172.371,-93.058c6.967,-3.758 16.405,-3.679 23.375,0.079c34.405,18.571 137.617,74 172.021,92.571c2.779,1.508 4.9,3.325 6.792,5.713l-382.692,210.408Z" style="fill:#dfb95f;"/><path id="path8" d="M385.804,101.242c5.309,4.791 5.209,12.016 5.209,17.7c-0,37.646 -0.33,144.729 0.091,182.379c0.042,3.929 -1.308,8.067 -3.325,11.179l-196.417,-104.167l194.442,-107.091Z" style="fill:#f8de4d;"/><text x="560.663px" y="336.371px" style="font-family:'Inter-Regular', 'Inter';font-size:377.004px;fill:#1e1d18;">Eon</text></svg>